# xmcd
#
# Track frame offsets:
#	182
#	10152
#	20547
#	30452
#	42292
#	54220
#	64277
#	75365
#	86100
#	96960
#	108707
#	120777
#	131395
#	143250
#	153400
#	164307
#	175720
#	186160
#	197177
#	208415
#
# Disc length: 2916 seconds
#
# Revision: 2
# Processed by: cddbd v1.5.2PL0 Copyright (c) Steve Scherf et al.
# Submitted via: MusicWizard 8.0.7
#
DISCID=000b6214
DTITLE=Baby Boomer Classics / The Fifties Vol. 1
DYEAR=
DGENRE=Oldies
TTITLE0=Rock Around The Clock - Bill Haley & The Comets
TTITLE1=That'll Be The Day - Buddy Holly & The Crickets
TTITLE2=Keep A Knockin' - Little Richard
TTITLE3=Whole Lotta Woman - Marvin Rainwater
TTITLE4=Running Bear - Johnny Preston
TTITLE5=It's Only Make Believe - Conway Twitty
TTITLE6=Why - Anthony Newley
TTITLE7=Mister Sandman - The Chordettes
TTITLE8=Singing The Blues - Tommy Steele
TTITLE9=Unchained Melody - Jimmy Young
TTITLE10=Teen Angel - Mark Dinning
TTITLE11=A Teenager In Love - Marty Wilde
TTITLE12=Only You - The Platters
TTITLE13=Maybe Tomorrow - Billy Fury
TTITLE14=Chantilly Lace - The Big Bopper
TTITLE15=Peggy Sue - Buddy Holly & The Crickets
TTITLE16=All I Have To Do Is Dream - The Everly Brothers
TTITLE17=A Withe Sports Coat (And A Pink Carnation) - Terry Dene
TTITLE18=High School Confidential - Jerry Lee Lewis
TTITLE19=Blue Suede Shoes - Carl Perkins
EXTD=
EXTT0=
EXTT1=
EXTT2=
EXTT3=
EXTT4=
EXTT5=
EXTT6=
EXTT7=
EXTT8=
EXTT9=
EXTT10=
EXTT11=
EXTT12=
EXTT13=
EXTT14=
EXTT15=
EXTT16=
EXTT17=
EXTT18=
EXTT19=
PLAYORDER=
